# Blender 3.3.1
# www.blender.org
o Ship
v 0.647013 0.167215 0.189851
v 0.730825 -0.251133 0.042945
v -1.058445 0.251133 0.130804
v -1.058445 -0.251133 0.246029
v -0.966619 -0.210145 0.000000
v 0.851222 0.258811 0.000000
v -1.141392 0.188958 0.000000
v 0.730825 -0.251133 0.000000
v -1.058445 0.000000 0.340725
v 1.058445 0.000000 0.199672
v 1.182720 0.000000 0.000000
v -0.992942 0.000000 0.000000
v 0.000000 0.175889 0.178345
v 0.000000 -0.251133 0.035339
v -0.000000 -0.251133 0.000000
v -0.000000 0.251133 0.000000
v -0.229729 0.000000 0.263035
v 0.365413 -0.251133 0.039142
v 0.425611 0.254972 0.000000
v 0.323506 0.171552 0.232808
v 0.365413 -0.251133 0.000000
v 0.369609 0.000000 0.263035
v -0.529222 0.213511 0.098323
v -0.529222 -0.251133 0.000000
v -0.644087 0.000000 0.377294
v -0.529222 -0.251133 0.093336
v -0.529222 0.251133 0.000000
v -1.058445 0.125567 0.340725
v 0.852729 0.083607 0.194762
v 1.016971 0.129405 0.000000
v -0.992942 0.125567 0.000000
v -0.114865 0.087945 0.269400
v 0.346558 0.085776 0.247921
v -0.586655 0.106756 0.305062
v 0.894635 -0.125567 0.121309
v 0.956772 -0.125567 0.000000
v -0.992942 -0.125567 0.000000
v -1.058445 -0.125567 0.340725
v -0.114865 -0.125567 0.149187
v 0.367511 -0.125567 0.151088
v -0.586655 -0.125567 0.244956
v -0.945319 0.000000 0.170363
v 0.647013 0.167215 -0.189851
v 0.730825 -0.251133 -0.042945
v -1.058445 0.251133 -0.130804
v -1.058445 -0.251133 -0.246029
v -1.058445 0.000000 -0.340725
v 1.058445 0.000000 -0.199672
v 0.000000 0.175889 -0.178345
v 0.000000 -0.251133 -0.035339
v -0.229729 0.000000 -0.263035
v 0.365413 -0.251133 -0.039142
v 0.323506 0.171552 -0.232808
v 0.369609 0.000000 -0.263035
v -0.529222 0.213511 -0.098323
v -0.644087 0.000000 -0.377294
v -0.529222 -0.251133 -0.093336
v -1.058445 0.125567 -0.340725
v 0.852729 0.083607 -0.194762
v -0.114865 0.087945 -0.269400
v 0.346558 0.085776 -0.247921
v -0.586655 0.106756 -0.305062
v 0.894635 -0.125567 -0.121309
v -1.058445 -0.125567 -0.340725
v -0.114865 -0.125567 -0.149187
v 0.367511 -0.125567 -0.151088
v -0.586655 -0.125567 -0.244956
v -0.945319 0.000000 -0.170363
vn 0.0880 0.9303 0.3560
vn 0.0728 0.8559 0.5120
vn -0.0000 -1.0000 -0.0000
vn 0.5031 0.6444 0.5758
vn -0.9365 -0.3010 -0.1800
vn -0.8331 -0.0000 -0.5532
vn 0.5063 -0.8224 0.2594
vn 0.1448 -0.6856 0.7134
vn -0.0029 -0.6654 0.7465
vn 0.0367 0.6953 0.7178
vn -0.0085 0.9425 0.3340
vn -0.0082 0.9040 0.4274
vn 0.1008 0.3037 0.9474
vn 0.0421 -0.6653 0.7454
vn -0.0529 -0.9816 -0.1833
vn 0.1625 -0.5771 0.8004
vn 0.0708 0.8782 0.4731
vn 0.0067 0.9213 0.3887
vn 0.2369 0.4538 0.8590
vn 0.0881 0.2731 0.9579
vn -0.0000 -0.0722 0.9974
vn -0.8314 0.5322 -0.1598
vn 0.5747 0.7361 0.3577
vn -0.0879 -0.0000 0.9961
vn 0.0850 -0.6255 0.7756
vn -0.0078 -0.6654 0.7465
vn 0.1928 -0.7186 0.6682
vn 0.6084 -0.7937 -0.0000
vn -0.8847 -0.2754 -0.3761
vn -0.8314 -0.5322 -0.1598
vn -0.9631 -0.0000 0.2692
vn -0.0935 0.9209 0.3784
vn 0.0914 0.8742 -0.4768
vn 0.5031 0.6444 -0.5758
vn -0.9365 -0.3010 0.1800
vn -0.8331 -0.0000 0.5532
vn 0.4650 -0.8367 -0.2894
vn 0.1448 -0.6856 -0.7134
vn -0.0029 -0.6654 -0.7465
vn -0.1630 0.1286 -0.9782
vn -0.0085 0.9425 -0.3340
vn -0.0082 0.9040 -0.4274
vn 0.1008 0.3037 -0.9474
vn 0.0736 -0.5953 -0.8001
vn -0.0933 -0.9956 -0.0000
vn 0.1625 -0.5771 -0.8004
vn -0.0471 0.7475 -0.6626
vn -0.0000 0.9340 -0.3574
vn 0.0681 -0.1601 -0.9847
vn 0.0881 0.2731 -0.9579
vn 0.0466 0.1855 -0.9815
vn -0.8314 0.5322 0.1598
vn 0.5747 0.7361 -0.3577
vn 0.0849 0.5266 -0.8459
vn 0.0850 -0.6255 -0.7756
vn 0.0463 -0.5716 -0.8192
vn -0.0078 -0.6654 -0.7465
vn 0.1928 -0.7186 -0.6682
vn 0.4714 -0.8482 -0.2415
vn -0.9722 0.1410 0.1869
vn -0.8314 -0.5322 0.1598
vn -0.9631 -0.0000 -0.2692
vn -0.0935 0.9209 -0.3784
vn 0.0914 0.8742 0.4768
vn 0.2756 0.7157 0.6417
vn -0.3238 -0.7583 0.5658
vn 0.4650 -0.8367 0.2894
vn -0.0000 -0.6717 0.7408
vn -0.1630 0.1286 0.9782
vn -0.0530 0.9201 0.3882
vn 0.0603 0.9310 0.3600
vn 0.1315 0.2062 0.9696
vn 0.0736 -0.5953 0.8001
vn 0.1981 -0.6667 0.7185
vn -0.0471 0.7475 0.6626
vn -0.0000 0.9340 0.3574
vn 0.0681 -0.1601 0.9847
vn 0.1032 0.1994 0.9745
vn 0.0466 0.1855 0.9815
vn 0.3235 0.8233 0.4664
vn 0.0849 0.5266 0.8459
vn 0.1343 -0.7376 0.6617
vn 0.0463 -0.5716 0.8192
vn -0.0029 -0.6732 0.7395
vn 0.1600 -0.5944 0.7881
vn 0.4714 -0.8482 0.2415
vn -0.9722 0.1410 -0.1869
vn 0.0880 0.9303 -0.3560
vn 0.0728 0.8559 -0.5120
vn 0.2756 0.7157 -0.6417
vn -0.3238 -0.7583 -0.5658
vn 0.5063 -0.8224 -0.2594
vn -0.0879 -0.0000 -0.9961
vn -0.0000 -0.6717 -0.7408
vn 0.0367 0.6953 -0.7178
vn -0.0530 0.9201 -0.3882
vn 0.0603 0.9310 -0.3600
vn 0.1315 0.2062 -0.9696
vn 0.0421 -0.6653 -0.7454
vn -0.0529 -0.9816 0.1833
vn 0.1981 -0.6667 -0.7185
vn 0.0708 0.8782 -0.4731
vn 0.0067 0.9213 -0.3887
vn 0.2369 0.4538 -0.8590
vn 0.1032 0.1994 -0.9745
vn -0.0000 -0.0722 -0.9974
vn 0.3235 0.8233 -0.4664
vn 0.1343 -0.7376 -0.6617
vn -0.0029 -0.6732 -0.7395
vn 0.1600 -0.5944 -0.7881
vn -0.8847 -0.2754 0.3761
vt 0.164422 0.765636
vt 0.655124 0.737139
vt 0.540522 0.191301
vt 0.264596 0.133212
vt 0.066411 0.033090
vt 0.911762 0.208404
vt 0.638573 0.963394
vt 0.271529 0.908111
vt 0.771618 0.136718
vt 0.474641 0.920938
vt 0.909675 0.208404
vt 0.028277 0.856476
vt 0.004957 0.000000
vt 0.997929 0.210907
vt 0.511946 0.190678
vt 0.760625 0.000000
vt 0.856597 0.036336
vt 0.440937 0.912457
vt 0.771618 0.912927
vt 0.638573 0.056317
vt 0.474641 0.000000
vt 0.229179 0.943002
vt 0.112667 1.000000
vt 0.508286 0.000000
vt 1.000000 0.313863
vt 0.638573 0.459999
vt 0.140643 0.487619
vt 0.520315 0.505348
vt 0.229179 0.445769
vt 0.496800 0.504836
vt 0.011717 0.490514
vt 0.444640 0.554270
vt 0.761833 0.358160
vt 0.246888 0.289490
vt 0.530418 0.348325
vt 0.019997 0.673495
vt 0.181626 0.625758
vt 0.653559 0.596901
vt 0.504373 0.347757
vt 0.471050 0.297675
vt 0.770447 0.615262
vt 0.069928 0.261359
vt 0.485832 0.732331
vt 0.474641 0.736653
vt 0.771618 0.176497
vt 0.547938 0.733685
vt 0.230355 0.674874
vt 0.000000 0.262970
vt 0.229179 0.029825
vt 0.771618 0.254837
vt 0.918657 0.000000
vt 0.678603 0.000278
vt 0.713371 0.825033
vt 0.196801 0.854319
vt 0.070472 0.928238
vt 1.000000 0.268453
vt 0.218668 0.436944
vt 0.706913 0.407411
vt 0.712003 0.606081
vt 0.223924 0.233385
vt 0.692758 0.203845
vt 0.369619 0.066606
vt 0.589548 0.123809
vt 0.510116 0.095339
vt 1.000000 0.359273
vt 0.946859 0.180616
vt 0.376231 0.912349
vt 0.794538 0.072672
vt 0.336910 0.500019
vt 0.358969 0.293583
vt 0.356571 0.706184
vt 0.886930 0.325800
vt 0.946859 0.100423
vt 0.164422 0.765636
vt 0.655124 0.737139
vt 0.264596 0.133212
vt 0.540522 0.191301
vt 0.066411 0.033090
vt 0.911762 0.208404
vt 0.638573 0.963394
vt 0.271529 0.908111
vt 0.771618 0.136718
vt 0.856597 0.036336
vt 0.440937 0.912457
vt 0.760625 0.000000
vt 0.474641 0.000000
vt 0.771618 0.912927
vt 0.638573 0.056317
vt 0.229179 0.943002
vt 0.638573 0.459999
vt 0.140643 0.487619
vt 0.520315 0.505348
vt 0.229179 0.445769
vt 0.444640 0.554270
vt 0.761833 0.358160
vt 0.530418 0.348325
vt 0.246888 0.289490
vt 0.181626 0.625758
vt 0.653559 0.596901
vt 0.471050 0.297675
vt 0.770447 0.615262
vt 0.069928 0.261359
vt 0.474641 0.736653
vt 0.771618 0.176497
vt 0.547938 0.733685
vt 0.230355 0.674874
vt 0.771618 0.254837
vt 0.918657 0.000000
vt 0.229179 0.029825
vt 0.678603 0.000278
vt 0.713371 0.825033
vt 0.196801 0.854319
vt 0.218668 0.436944
vt 0.706913 0.407411
vt 0.712003 0.606081
vt 0.223924 0.233385
vt 0.692758 0.203845
vt 0.369619 0.066606
vt 0.589548 0.123809
vt 0.794538 0.072672
vt 0.376231 0.912349
vt 0.336910 0.500019
vt 0.358969 0.293583
vt 0.356571 0.706184
vt 0.886930 0.325800
vt 0.946859 0.100423
s 0
f 27/48/1 3/5/1 23/42/1
f 34/60/2 3/5/2 28/49/2
f 8/15/3 18/35/3 21/39/3
f 6/12/4 29/54/4 30/55/4
f 3/6/5 31/56/5 28/50/5
f 38/68/6 9/17/6 42/73/6
f 36/64/7 10/20/7 35/63/7
f 25/44/8 38/67/8 41/71/8
f 22/40/9 39/69/9 40/70/9
f 24/43/3 14/28/3 26/46/3
f 33/59/10 13/26/10 32/58/10
f 16/31/11 20/37/11 19/36/11
f 19/36/12 1/1/12 6/12/12
f 1/2/13 33/59/13 29/53/13
f 35/62/14 22/40/14 40/70/14
f 21/39/3 14/28/3 15/30/3
f 5/10/15 26/46/15 4/7/15
f 17/32/16 41/71/16 39/69/16
f 32/57/17 23/42/17 34/60/17
f 16/31/18 23/42/18 13/27/18
f 17/33/19 34/61/19 25/45/19
f 29/53/20 22/41/20 10/19/20
f 22/41/21 32/58/21 17/33/21
f 37/66/22 38/68/22 42/73/22
f 30/55/23 10/22/23 11/23/23
f 25/45/24 28/52/24 9/16/24
f 39/69/25 26/47/25 14/29/25
f 2/4/26 40/70/26 18/34/26
f 40/70/26 14/29/26 18/34/26
f 41/71/27 4/8/27 26/47/27
f 8/15/28 35/63/28 2/3/28
f 4/9/29 37/66/29 5/11/29
f 28/50/30 31/56/30 42/72/30
f 12/25/31 37/65/31 42/72/31
f 31/56/31 12/25/31 42/72/31
f 9/17/6 28/51/6 42/73/6
f 27/48/32 45/78/32 7/13/32
f 62/116/33 45/78/33 55/102/33
f 52/96/3 8/15/3 21/39/3
f 59/112/34 6/12/34 30/55/34
f 31/56/35 45/79/35 58/107/35
f 64/120/36 68/126/36 47/83/36
f 36/64/37 48/88/37 11/24/37
f 64/121/38 56/103/38 67/124/38
f 65/122/39 54/100/39 66/123/39
f 24/43/3 50/92/3 15/30/3
f 61/115/40 49/90/40 53/99/40
f 53/98/41 16/31/41 19/36/41
f 43/74/42 19/36/42 6/12/42
f 61/115/43 43/75/43 59/111/43
f 63/118/44 54/100/44 48/86/44
f 50/92/3 21/39/3 15/30/3
f 5/10/45 57/105/45 24/43/45
f 67/124/46 51/94/46 65/122/46
f 60/113/47 55/102/47 49/91/47
f 16/31/48 55/102/48 27/48/48
f 51/95/49 62/117/49 60/114/49
f 54/101/50 59/111/50 48/87/50
f 54/101/51 60/114/51 61/115/51
f 37/66/52 68/126/52 64/120/52
f 48/89/53 30/55/53 11/23/53
f 56/104/54 58/110/54 62/117/54
f 57/106/55 65/122/55 50/93/55
f 44/76/56 66/123/56 63/118/56
f 50/93/57 66/123/57 52/97/57
f 46/81/58 67/124/58 57/106/58
f 8/15/59 63/119/59 36/64/59
f 46/82/60 37/66/60 64/120/60
f 58/107/61 68/125/61 31/56/61
f 12/25/62 68/125/62 37/65/62
f 31/56/62 68/125/62 12/25/62
f 47/83/36 68/126/36 58/108/36
f 27/48/63 7/13/63 3/5/63
f 34/60/64 23/42/64 3/5/64
f 8/15/3 2/3/3 18/35/3
f 6/12/65 1/1/65 29/54/65
f 3/6/66 7/14/66 31/56/66
f 36/64/67 11/24/67 10/20/67
f 25/44/24 9/18/24 38/67/24
f 22/40/68 17/32/68 39/69/68
f 24/43/3 15/30/3 14/28/3
f 33/59/69 20/38/69 13/26/69
f 16/31/70 13/27/70 20/37/70
f 19/36/71 20/37/71 1/1/71
f 1/2/72 20/38/72 33/59/72
f 35/62/73 10/21/73 22/40/73
f 21/39/3 18/35/3 14/28/3
f 5/10/45 24/43/45 26/46/45
f 17/32/74 25/44/74 41/71/74
f 32/57/75 13/27/75 23/42/75
f 16/31/76 27/48/76 23/42/76
f 17/33/77 32/58/77 34/61/77
f 29/53/78 33/59/78 22/41/78
f 22/41/79 33/59/79 32/58/79
f 30/55/80 29/54/80 10/22/80
f 25/45/81 34/61/81 28/52/81
f 39/69/82 41/71/82 26/47/82
f 2/4/83 35/62/83 40/70/83
f 40/70/84 39/69/84 14/29/84
f 41/71/85 38/67/85 4/8/85
f 8/15/86 36/64/86 35/63/86
f 4/9/87 38/68/87 37/66/87
f 27/48/88 55/102/88 45/78/88
f 62/116/89 58/109/89 45/78/89
f 52/96/3 44/77/3 8/15/3
f 59/112/90 43/74/90 6/12/90
f 31/56/91 7/14/91 45/79/91
f 36/64/92 63/119/92 48/88/92
f 64/121/93 47/84/93 56/103/93
f 65/122/94 51/94/94 54/100/94
f 24/43/3 57/105/3 50/92/3
f 61/115/95 60/114/95 49/90/95
f 53/98/96 49/91/96 16/31/96
f 43/74/97 53/98/97 19/36/97
f 61/115/98 53/99/98 43/75/98
f 63/118/99 66/123/99 54/100/99
f 50/92/3 52/96/3 21/39/3
f 5/10/100 46/80/100 57/105/100
f 67/124/101 56/103/101 51/94/101
f 60/113/102 62/116/102 55/102/102
f 16/31/103 49/91/103 55/102/103
f 51/95/104 56/104/104 62/117/104
f 54/101/105 61/115/105 59/111/105
f 54/101/106 51/95/106 60/114/106
f 48/89/107 59/112/107 30/55/107
f 56/104/93 47/85/93 58/110/93
f 57/106/108 67/124/108 65/122/108
f 44/76/57 52/97/57 66/123/57
f 50/93/109 65/122/109 66/123/109
f 46/81/110 64/121/110 67/124/110
f 8/15/28 44/77/28 63/119/28
f 46/82/111 5/11/111 37/66/111
